HIERARCHY
ROOT Hips
{
	OFFSET 0.000000 0.000000 0.000000
	CHANNELS 6 Xposition Yposition Zposition Xrotation Yrotation Zrotation
	JOINT LeftUpLeg_virtual
	{
		OFFSET 0.000000 0.000000 0.000000
		CHANNELS 3 Xrotation Yrotation Zrotation
		JOINT LeftUpLeg
		{
			OFFSET 13.026900 -6.336304 -1.092800
			CHANNELS 3 Xrotation Yrotation Zrotation
			JOINT LeftLeg
			{
				OFFSET 0.524474 -46.096886 9.782700
				CHANNELS 3 Xrotation Yrotation Zrotation
				JOINT LeftFoot
				{
					OFFSET -0.524474 -53.427422 -12.948200
					CHANNELS 3 Xrotation Yrotation Zrotation
					JOINT LeftToeBase
					{
						OFFSET 0.192200 -14.009700 16.364100
						CHANNELS 3 Xrotation Yrotation Zrotation
						JOINT LeftToe_End
						{
							OFFSET -1.784700 -0.561700 9.474800
							CHANNELS 3 Xrotation Yrotation Zrotation
							End Site
							{
								OFFSET 0 0 0
							}
						}
					}
				}
			}
		}
	}
	JOINT RightUpLeg_virtual
	{
		OFFSET 0.000000 0.000000 0.000000
		CHANNELS 3 Xrotation Yrotation Zrotation
		JOINT RightUpLeg
		{
			OFFSET -12.883000 -6.336304 -1.092800
			CHANNELS 3 Xrotation Yrotation Zrotation
			JOINT RightLeg
			{
				OFFSET -0.524587 -46.096825 9.782800
				CHANNELS 3 Xrotation Yrotation Zrotation
				JOINT RightFoot
				{
					OFFSET 0.524587 -53.427383 -12.948300
					CHANNELS 3 Xrotation Yrotation Zrotation
					JOINT RightToeBase
					{
						OFFSET -0.192200 -14.009700 16.364100
						CHANNELS 3 Xrotation Yrotation Zrotation
						JOINT RightToe_End
						{
							OFFSET 1.784700 -0.561700 9.474800
							CHANNELS 3 Xrotation Yrotation Zrotation
							End Site
							{
								OFFSET 0 0 0
							}
						}
					}
				}
			}
		}
	}
	JOINT Spine_virtual
	{
		OFFSET 0.000000 0.000000 0.000000
		CHANNELS 3 Xrotation Yrotation Zrotation
		JOINT Spine
		{
			OFFSET 0.072000 7.257294 -0.789700
			CHANNELS 3 Xrotation Yrotation Zrotation
			JOINT Spine1
			{
				OFFSET 0.000000 12.508769 -0.658067
				CHANNELS 3 Xrotation Yrotation Zrotation
				JOINT Spine1_split
				{
					OFFSET 0.000000 12.508769 -0.658067
					CHANNELS 3 Xrotation Yrotation Zrotation
					JOINT Spine2
					{
						OFFSET 0.000000 12.508769 -0.658067
						CHANNELS 3 Xrotation Yrotation Zrotation
						JOINT Neck_virtual
						{
							OFFSET 0.000000 0.000000 0.000000
							CHANNELS 3 Xrotation Yrotation Zrotation
							JOINT Neck
							{
								OFFSET 0.000000 14.033295 7.520400
								CHANNELS 3 Xrotation Yrotation Zrotation
								JOINT Head
								{
									OFFSET 0.000000 8.198502 5.703100
									CHANNELS 3 Xrotation Yrotation Zrotation
									JOINT HeadTop_End
									{
										OFFSET 0.000000 17.760803 13.332701
										CHANNELS 3 Xrotation Yrotation Zrotation
										End Site
										{
											OFFSET 0 0 0
										}
									}
								}
							}
						}
						JOINT LeftShoulder_virtual
						{
							OFFSET 0.000000 0.000000 0.000000
							CHANNELS 3 Xrotation Yrotation Zrotation
							JOINT LeftShoulder
							{
								OFFSET 6.292450 5.785301 -0.669000
								CHANNELS 3 Xrotation Yrotation Zrotation
								JOINT LeftShoulder_split
								{
									OFFSET 6.292450 5.785301 -0.669000
									CHANNELS 3 Xrotation Yrotation Zrotation
									JOINT LeftArm
									{
										OFFSET 13.907140 -6.093903 1.965100
										CHANNELS 3 Xrotation Yrotation Zrotation
										JOINT LeftForeArm
										{
											OFFSET 34.140198 0.000000 0.000000
											CHANNELS 3 Xrotation Yrotation Zrotation
											JOINT LeftHand
											{
												OFFSET 40.960209 0.000000 0.000000
												CHANNELS 3 Xrotation Yrotation Zrotation
												End Site
												{
													OFFSET 0 0 0
												}
											}
										}
									}
								}
							}
						}
						JOINT RightShoulder_virtual
						{
							OFFSET 0.000000 0.000000 0.000000
							CHANNELS 3 Xrotation Yrotation Zrotation
							JOINT RightShoulder
							{
								OFFSET -6.292450 5.785301 -0.669000
								CHANNELS 3 Xrotation Yrotation Zrotation
								JOINT RightShoulder_split
								{
									OFFSET -6.292450 5.785301 -0.669000
									CHANNELS 3 Xrotation Yrotation Zrotation
									JOINT RightArm
									{
										OFFSET -13.907140 -6.093903 1.965100
										CHANNELS 3 Xrotation Yrotation Zrotation
										JOINT RightForeArm
										{
											OFFSET -34.140198 0.000000 0.000000
											CHANNELS 3 Xrotation Yrotation Zrotation
											JOINT RightHand
											{
												OFFSET -40.960209 0.000000 0.000000
												CHANNELS 3 Xrotation Yrotation Zrotation
												End Site
												{
													OFFSET 0 0 0
												}
											}
										}
									}
								}
							}
						}
					}
				}
			}
		}
	}
}
MOTION
Frames: 7
Frame Time: 0.03333333
-6.542385 128.978714 214.330368 0.000000 0.000000 0.000000 21.174683 6.595326 -0.068221 -16.131636 10.087300 12.296966 44.665725 12.932699 1.027467 14.974526 -0.256148 0.362917 5.320609 1.339938 -2.852701 0.000000 0.000000 0.000000 20.278138 11.299527 -0.547467 -59.955346 -17.265817 -11.117737 37.682027 -1.797618 -9.143386 41.212053 4.130869 -0.832665 5.566088 0.372244 0.623188 0.000000 0.000000 0.000000 20.031574 4.266227 1.658547 0.256213 0.129624 1.934705 -3.944427 -0.250229 0.162283 0.513133 -1.619372 0.122300 0.000000 0.000000 0.000000 -1.552425 -0.049931 -0.730326 -10.677394 0.352377 -7.495031 -25.753471 7.448128 2.253496 0.000000 0.000000 0.000000 -4.680367 0.176415 0.100439 10.533875 -4.776970 30.927694 5.040162 6.656083 -0.672154 -50.367529 -16.966569 12.201458 -40.159026 -42.976892 -7.901795 0.000000 0.000000 0.000000 -3.645378 0.284479 0.016252 -3.654298 -18.193039 -38.414415 4.607969 2.461550 3.112356 -100.733720 11.774648 44.003880 -33.020481 55.799384 2.458799 0.000000 0.000000 0.000000 
-6.948254 123.327049 224.791061 0.000000 0.000000 0.000000 17.464618 8.020044 -0.134473 -15.120666 10.082296 13.591916 45.168441 12.591345 -0.202638 11.902218 0.104613 -0.559946 5.463622 1.616348 -4.780443 0.000000 0.000000 0.000000 16.986781 13.176205 -0.664142 -62.326658 -17.510739 -11.384876 40.122614 -0.396815 -9.033491 38.511824 2.272185 -2.480679 2.149701 0.057083 1.121088 0.000000 0.000000 0.000000 16.432009 6.517369 1.153078 1.318263 -0.295028 1.334068 -3.829485 -0.786254 0.450606 0.807127 -0.730491 0.208982 0.000000 0.000000 0.000000 -1.741947 -0.383575 -0.826619 -8.362629 0.380589 -7.013526 -27.327770 6.345455 3.260307 0.000000 0.000000 0.000000 -5.042434 -0.157744 0.055734 10.441878 -4.425594 32.160871 4.460925 7.056024 -1.015860 -48.276887 -13.561873 14.803561 -40.922754 -40.685999 -6.935514 0.000000 0.000000 0.000000 -3.771697 0.071229 0.190858 -4.501303 -18.831293 -40.531903 4.452362 1.962918 3.548332 -97.434295 13.921515 39.440699 -30.239857 51.640229 -4.107927 0.000000 0.000000 0.000000 
-7.522285 118.999977 234.467834 0.000000 0.000000 0.000000 13.249764 9.502750 -0.382635 -15.514420 11.359607 14.079663 44.459221 12.212724 -0.761240 7.211140 0.113202 -0.103092 4.693785 1.785659 -6.018381 0.000000 0.000000 0.000000 13.230383 15.212638 -0.939533 -62.176435 -19.474618 -12.108173 40.600612 0.375261 -8.464706 36.271402 0.338555 -4.072766 -0.233818 -0.286903 1.698603 0.000000 0.000000 0.000000 12.351753 8.682234 0.437832 2.323434 -0.614419 1.048163 -3.579954 -1.465929 0.742450 1.111062 -0.035433 0.215983 0.000000 0.000000 0.000000 -1.942593 -0.897182 -0.851442 -5.853785 0.470579 -6.147818 -27.321329 5.087334 4.455591 0.000000 0.000000 0.000000 -5.209623 -0.680492 -0.048005 10.529912 -4.034015 33.415160 4.139026 6.852894 -1.384619 -45.341593 -9.086009 16.692444 -41.366867 -39.093944 -6.060970 0.000000 0.000000 0.000000 -3.860309 -0.360635 0.384654 -4.599750 -19.035590 -41.417215 4.088450 1.260448 3.541836 -92.134286 15.447837 34.627212 -30.205883 49.587409 -6.789073 0.000000 0.000000 0.000000 
-8.267200 116.559517 243.580215 0.000000 0.000000 0.000000 9.278959 10.933599 -0.754553 -16.586433 13.631791 13.506808 41.579139 11.318382 -0.337801 1.645059 -0.667064 0.842784 2.865082 1.842854 -6.163287 0.000000 0.000000 0.000000 9.470773 17.501190 -1.223353 -59.500148 -22.520332 -12.700453 38.340830 0.876212 -7.720486 33.579952 -1.199193 -5.593316 -0.664832 -0.491204 2.159060 0.000000 0.000000 0.000000 8.046453 10.621450 -0.287583 3.054778 -0.811188 1.027010 -3.309852 -2.166825 0.976044 1.258218 -0.006258 0.161769 0.000000 0.000000 0.000000 -2.137465 -1.500862 -0.813956 -2.875348 0.643998 -4.995267 -25.642955 3.940367 5.722146 0.000000 0.000000 0.000000 -5.247163 -1.303784 -0.151984 10.706860 -3.417634 34.699519 4.003707 6.278364 -1.667555 -42.585424 -4.623980 17.510114 -41.820709 -38.630662 -5.828888 0.000000 0.000000 0.000000 -3.966868 -0.941566 0.567229 -4.025290 -18.915591 -41.052644 3.890336 0.647641 3.177823 -85.906390 15.786189 30.007982 -32.175908 51.488975 -5.810141 0.000000 0.000000 0.000000 
-8.987944 116.028206 252.403091 0.000000 0.000000 0.000000 5.945353 12.345295 -1.068177 -17.788546 16.307406 12.066334 36.454738 9.231572 0.918947 -2.414568 -2.228959 0.717575 -0.045881 1.786604 -5.163608 0.000000 0.000000 0.000000 5.950757 19.595043 -1.321326 -54.898021 -25.941356 -12.742479 33.498994 1.189370 -6.985760 30.606225 -1.970567 -6.994497 0.390125 -0.389888 2.313116 0.000000 0.000000 0.000000 4.152003 12.176743 -0.855127 3.252810 -0.897543 1.156501 -3.190273 -2.782492 1.069251 1.416372 0.038037 -0.154049 0.000000 0.000000 0.000000 -2.350181 -2.096541 -0.779388 0.622882 0.966023 -3.766033 -22.455690 2.995038 6.995959 0.000000 0.000000 0.000000 -5.294431 -1.934165 -0.261091 10.873934 -2.526530 36.123914 3.828163 5.533234 -1.713200 -40.908315 -1.073959 17.599374 -42.507870 -39.085460 -6.429039 0.000000 0.000000 0.000000 -4.129241 -1.574710 0.666494 -2.849270 -18.459913 -39.717711 3.721380 -0.119282 2.445927 -80.098940 15.237131 26.209174 -35.681598 55.500007 -1.669902 0.000000 0.000000 0.000000 
-9.505778 117.133591 260.882721 0.000000 0.000000 0.000000 3.281356 13.598638 -1.260189 -19.019003 18.815228 10.204469 30.264660 6.094904 2.431974 -3.026711 -4.074145 -0.638548 -3.276983 1.590533 -3.457567 0.000000 0.000000 0.000000 2.763904 20.891436 -1.204558 -49.370895 -29.000659 -12.179670 27.030110 1.393705 -6.433666 27.869772 -1.927686 -7.730980 1.649064 -0.063777 2.078647 0.000000 0.000000 0.000000 1.016060 13.271636 -1.253769 2.831433 -0.921792 1.283356 -3.312019 -3.256112 0.969323 1.148782 0.174927 -0.575864 0.000000 0.000000 0.000000 -2.736443 -2.585139 -0.815055 4.464249 1.420382 -2.669482 -18.193466 2.258835 8.228224 0.000000 0.000000 0.000000 -5.485337 -2.465013 -0.413483 10.978364 -1.420918 37.719440 3.728562 4.923175 -1.296352 -40.675785 0.725134 17.398997 -43.274354 -39.520260 -7.594048 0.000000 0.000000 0.000000 -4.444012 -2.135162 0.607482 -1.305282 -17.669850 -37.959453 3.714897 -0.624670 1.475494 -75.966641 14.781180 23.122960 -39.599856 57.731587 3.874574 0.000000 0.000000 0.000000 
-9.621930 119.114052 269.194916 0.000000 0.000000 0.000000 1.290413 14.611074 -1.386674 -20.341174 21.004268 8.260060 24.877943 2.998747 3.701860 -0.429102 -5.387991 -1.833599 -4.982755 1.265921 -1.968229 0.000000 0.000000 0.000000 0.374300 21.629688 -1.053019 -43.618295 -31.126176 -11.142465 20.778808 1.635864 -6.112469 25.317455 -1.359849 -7.835769 2.078480 0.305631 1.534161 0.000000 0.000000 0.000000 -1.426626 13.763277 -1.484799 1.923904 -0.945957 1.281897 -3.648189 -3.584067 0.702366 0.989236 0.181463 -0.908491 0.000000 0.000000 0.000000 -3.356794 -2.953672 -0.938681 8.207095 1.841610 -1.850370 -13.429807 1.512943 9.396698 0.000000 0.000000 0.000000 -5.843020 -2.864182 -0.596593 11.002221 -0.161200 39.521274 3.624889 4.449411 -0.691673 -41.449252 0.437081 17.112931 -43.670109 -38.887399 -8.694978 0.000000 0.000000 0.000000 -4.927214 -2.567005 0.395888 0.289825 -16.565060 -36.464365 3.878652 -0.859940 0.528461 -73.973387 15.294960 20.827147 -41.313332 55.803520 7.545360 0.000000 0.000000 0.000000 
